<?xml version="1.0" encoding="utf-8"?>
<!-- Generator: Adobe Illustrator 23.0.1, SVG Export Plug-In . SVG Version: 6.00 Build 0)  -->
<svg version="1.1" id="Capa_1" xmlns="http://www.w3.org/2000/svg" xmlns:xlink="http://www.w3.org/1999/xlink" x="0px" y="0px"
	 width="27px" height="29px" viewBox="0 0 27 29" style="enable-background:new 0 0 27 29;" xml:space="preserve">
<g>
	<path d="M7.7,19.1h16c1.8,0,3.3-1.5,3.3-3.3V9.1c0,0,0,0,0,0c0,0,0,0,0,0c0,0,0,0,0,0c0,0,0,0,0,0s0,0,0,0c0,0,0,0,0,0c0,0,0,0,0,0
		c0,0,0,0,0,0c0,0,0,0,0,0c0,0,0,0,0,0c0,0,0,0,0,0c0,0,0,0,0,0s0,0,0,0c0,0,0,0,0,0c0,0,0,0,0,0c0,0,0,0,0,0s0,0,0,0c0,0,0,0,0,0
		c0,0,0,0,0,0c0,0,0,0,0,0c0,0,0,0,0,0s0,0,0,0c0,0,0,0,0,0s0,0,0,0c0,0,0,0,0,0c0,0,0,0,0,0c0,0,0,0,0,0s0,0,0,0c0,0,0,0,0,0
		c0,0,0,0,0,0L6,5.5V2.7c0,0,0-0.1,0-0.1c0,0,0,0,0,0c0,0,0,0,0-0.1c0,0,0,0,0,0c0,0,0,0,0,0c0,0,0,0,0-0.1c0,0,0,0,0,0c0,0,0,0,0,0
		c0,0,0,0,0,0c0,0,0,0,0,0c0,0,0,0,0,0c0,0,0,0,0,0c0,0,0,0,0,0c0,0,0,0,0,0c0,0,0,0,0,0c0,0,0,0,0,0c0,0,0,0,0,0c0,0,0,0,0,0
		c0,0,0,0,0,0c0,0,0,0,0,0c0,0,0,0,0,0c0,0-0.1,0-0.1,0L1.1,0.1c-0.4-0.2-0.9,0-1.1,0.4s0,0.9,0.4,1.1l3.9,1.6v3.6v0.6v4.4v4v5
		c0,1.7,1.3,3.1,2.9,3.3c-0.3,0.5-0.5,1.1-0.5,1.7c0,1.8,1.5,3.2,3.3,3.2s3.3-1.5,3.3-3.2c0-0.6-0.2-1.2-0.4-1.6h7.2
		c-0.3,0.5-0.4,1-0.4,1.6c0,1.8,1.5,3.2,3.3,3.2s3.3-1.5,3.3-3.2s-1.5-3.2-3.3-3.2H7.7c-0.9,0-1.7-0.8-1.7-1.7v-2.2
		C6.5,18.9,7.1,19.1,7.7,19.1z M11.7,25.7c0,0.9-0.7,1.6-1.6,1.6c-0.9,0-1.6-0.7-1.6-1.6c0-0.9,0.7-1.6,1.6-1.6
		C11,24.1,11.7,24.8,11.7,25.7z M24.6,25.7c0,0.9-0.7,1.6-1.6,1.6s-1.6-0.7-1.6-1.6c0-0.9,0.7-1.6,1.6-1.6S24.6,24.8,24.6,25.7z
		 M23.7,17.5h-16c-0.9,0-1.7-0.8-1.7-1.7v-4V7.4V7.1l19.4,2.7v6C25.4,16.7,24.6,17.5,23.7,17.5z"/>
</g>
</svg>
