<?xml version="1.0" encoding="utf-8"?>
<!-- Generator: Adobe Illustrator 23.0.1, SVG Export Plug-In . SVG Version: 6.00 Build 0)  -->
<svg version="1.1" id="Capa_1" xmlns="http://www.w3.org/2000/svg" xmlns:xlink="http://www.w3.org/1999/xlink" x="0px" y="0px"
	 width="31px" height="30px" viewBox="0 0 31 30" style="enable-background:new 0 0 31 30;" xml:space="preserve">
<style type="text/css">
	.st0{fill:#1E201D;}
</style>
<path class="st0" d="M23.5,15.7c0.3-0.3,0.3-0.8,0-1.2c-0.3-0.3-0.8-0.3-1.2,0l-6,5.9V0.8C16.3,0.4,16,0,15.5,0s-0.8,0.4-0.8,0.8
	v19.6l-6-5.9c-0.3-0.3-0.9-0.3-1.2,0c-0.3,0.3-0.3,0.8,0,1.2l7.4,7.4c0.3,0.3,0.8,0.3,1.2,0L23.5,15.7z M29.3,21.1
	c0-0.5,0.4-0.8,0.8-0.8s0.8,0.4,0.8,0.8v8.1c0,0.5-0.4,0.8-0.8,0.8H0.8C0.4,30,0,29.6,0,29.2v-8.1c0-0.5,0.4-0.8,0.8-0.8
	s0.8,0.4,0.8,0.8v7.3h27.7V21.1z"/>
</svg>
