<?xml version="1.0" encoding="utf-8"?>
<!-- Generator: Adobe Illustrator 23.0.1, SVG Export Plug-In . SVG Version: 6.00 Build 0)  -->
<svg version="1.1" id="Capa_1" xmlns="http://www.w3.org/2000/svg" xmlns:xlink="http://www.w3.org/1999/xlink" x="0px" y="0px"
	 width="25px" height="26px" viewBox="0 0 25 26" style="enable-background:new 0 0 25 26;" xml:space="preserve">
<g>
	<g>
		<path d="M17.4,17c1.6-1.8,2.7-4.2,2.7-6.9C20,4.5,15.5,0,10,0S0,4.5,0,10.1s4.5,10.1,10,10.1c2.3,0,4.3-0.7,6-2l7.5,7.5
			c0.2,0.2,0.4,0.3,0.6,0.3s0.5-0.1,0.6-0.3c0.3-0.3,0.3-0.9,0-1.3L17.4,17z M1.8,10.1c0-4.6,3.7-8.3,8.2-8.3c4.5,0,8.2,3.7,8.2,8.3
			s-3.7,8.3-8.2,8.3S1.8,14.7,1.8,10.1z"/>
	</g>
</g>
</svg>
